<svg width="1434" height="204" viewBox="0 0 1434 204" fill="none" xmlns="http://www.w3.org/2000/svg">
<path d="M179.919 171.493V183.792H44.9737C48.8393 211.906 66.4103 228.071 93.4696 228.071C112.798 228.071 127.206 219.637 133.18 204.878H177.459C170.079 242.831 135.991 268.133 91.3611 268.133C36.891 268.133 -0.00805664 229.477 -0.00805664 171.493C-0.00805664 113.509 36.1882 74.8524 89.9554 74.8524C143.723 74.8524 179.919 113.509 179.919 171.493ZM89.9554 114.914C65.356 114.914 49.5421 130.025 45.3251 156.382H134.234C130.017 130.025 114.203 114.914 89.9554 114.914Z" fill="black"/>
<path d="M299.78 80.1237H313.837V130.377H286.426C263.584 130.377 257.259 140.919 257.259 169.736V262.862H209.817V80.1237H254.447V111.4H258.313C263.233 92.4234 279.398 80.1237 299.78 80.1237Z" fill="black"/>
<path d="M412.408 74.8524C460.904 74.8524 487.611 101.912 487.611 149.002V262.862H442.63V237.208H439.116C427.519 256.888 407.839 268.133 381.131 268.133C347.044 268.133 326.661 250.562 326.661 218.583C326.661 177.116 361.1 156.733 440.17 155.679V147.245C440.17 126.863 428.573 115.266 408.893 115.266C391.674 115.266 379.374 124.051 377.969 140.568H330.175C336.15 97.3433 368.129 74.8524 412.408 74.8524ZM398.351 230.531C424.707 230.531 440.17 212.96 440.17 183.09V180.981C393.08 181.684 371.994 191.172 371.994 210.5C371.994 223.503 381.483 230.531 398.351 230.531Z" fill="black"/>
<path d="M578.948 260.233C555.755 260.233 544.158 249.339 544.158 227.551V95.0658H516.747V77.1434H544.158V21.2677H565.946V77.1434H599.682V95.0658H565.946V224.037C565.946 230.362 567.351 234.814 570.163 237.391C572.974 239.968 577.425 241.256 583.517 241.256C588.905 241.256 593.708 240.319 597.925 238.445H598.979V257.07C593.122 259.179 586.445 260.233 578.948 260.233Z" fill="black"/>
<path d="M699.647 245.122C719.092 245.122 734.203 237.859 744.98 223.334C755.757 208.809 761.146 190.418 761.146 168.161C761.146 145.905 755.757 127.514 744.98 112.988C734.203 98.4629 719.092 91.2002 699.647 91.2002C679.968 91.2002 664.739 98.4629 653.963 112.988C643.186 127.514 637.797 145.905 637.797 168.161C637.797 190.418 643.186 208.809 653.963 223.334C664.739 237.859 679.968 245.122 699.647 245.122ZM699.647 263.396C673.876 263.396 653.377 254.493 638.149 236.688C622.92 218.648 615.306 195.806 615.306 168.161C615.306 140.516 622.92 117.791 638.149 99.9857C653.377 81.9462 673.876 72.9264 699.647 72.9264C725.184 72.9264 745.449 81.9462 760.443 99.9857C775.671 117.791 783.285 140.516 783.285 168.161C783.285 195.806 775.671 218.648 760.443 236.688C745.449 254.493 725.184 263.396 699.647 263.396Z" fill="black"/>
<path d="M810.8 258.827V7.56234H832.588V164.647L922.903 77.1434H950.665L881.084 142.859L959.099 258.827H933.797L865.973 156.916L832.588 188.895V258.827H810.8Z" fill="black"/>
<path d="M1040.78 263.396C1014.31 263.396 993.572 254.61 978.578 237.039C963.584 219.234 956.087 196.275 956.087 168.161C956.087 140.516 963.701 117.791 978.93 99.9857C994.158 81.9462 1014.19 72.9264 1039.02 72.9264C1053.08 72.9264 1065.26 75.6206 1075.57 81.009C1086.11 86.3975 1094.31 93.8944 1100.17 103.5C1106.03 113.105 1110.24 123.648 1112.82 135.128C1115.63 146.373 1117.04 158.673 1117.04 172.027H978.578C979.047 193.58 984.552 211.151 995.095 224.74C1005.64 238.094 1020.87 244.771 1040.78 244.771C1068.42 244.771 1086.11 231.182 1093.84 204.006H1114.93C1110.95 222.28 1102.51 236.805 1089.63 247.582C1076.98 258.125 1060.69 263.396 1040.78 263.396ZM978.93 154.807H1094.2C1093.73 135.831 1088.81 120.485 1079.44 108.771C1070.3 96.8229 1056.83 90.8488 1039.02 90.8488C1021.45 90.8488 1007.51 96.7058 997.203 108.42C987.129 120.134 981.038 135.596 978.93 154.807Z" fill="black"/>
<path d="M1144.03 258.827V77.1434H1165.82V104.906H1166.52C1180.81 83.8204 1201.08 73.2778 1227.32 73.2778C1244.65 73.2778 1258.59 78.3148 1269.14 88.3889C1279.91 98.2286 1285.3 112.051 1285.3 129.856V258.827H1263.51V131.965C1263.51 105.257 1249.69 91.9031 1222.05 91.9031C1206.35 91.9031 1193 96.8229 1181.98 106.663C1171.21 116.502 1165.82 128.802 1165.82 143.562V258.827H1144.03Z" fill="black"/>
<path d="M1379.19 110.697C1346.5 110.697 1323.66 88.2063 1323.66 55.8757C1323.66 22.8423 1346.5 0 1379.19 0C1411.52 0 1434.01 22.8423 1434.01 55.8757C1434.01 88.2063 1411.52 110.697 1379.19 110.697ZM1379.19 80.1237C1393.24 80.1237 1403.43 69.9325 1403.43 55.8757C1403.43 41.1161 1393.24 30.5735 1379.19 30.5735C1364.78 30.5735 1354.59 41.1161 1354.59 55.8757C1354.59 69.9325 1364.78 80.1237 1379.19 80.1237Z" fill="black"/>
</svg>
