<svg width="1429" height="289" viewBox="0 0 1429 289" fill="none" xmlns="http://www.w3.org/2000/svg">
<path d="M233.214 265.144H58.6486C63.6715 303.736 86.3365 325.94 121.378 325.94C146.373 325.94 165.02 314.349 172.775 294.056H230.04C220.516 346.104 176.392 380.875 118.726 380.875C48.2401 380.875 0.5 327.808 0.5 248.162C0.5 168.517 47.3161 115.533 116.837 115.533C186.358 115.533 233.175 168.602 233.175 248.162V265.144H233.214ZM59.0905 227.486H174.102C168.637 191.315 148.182 170.597 116.837 170.597C85.4924 170.597 64.5559 191.315 59.0905 227.486Z" fill="black"/>
<path d="M406.855 122.826V191.815H371.41C341.873 191.815 333.675 206.292 333.675 245.818V373.609H272.312V122.741H330.062V165.663H335.082C341.432 139.638 362.329 122.741 388.732 122.741H406.893L406.855 122.826Z" fill="black"/>
<path d="M634.784 217.34V373.66H576.599V338.422H572.098C557.109 365.465 531.632 380.875 497.109 380.875C453.024 380.875 426.627 356.717 426.627 312.863C426.627 255.889 471.152 227.996 573.422 226.51V214.92C573.422 186.942 558.433 171.022 532.956 171.022C510.691 171.022 494.781 183.079 492.971 205.75H431.167C438.924 146.44 480.272 115.533 537.535 115.533C600.266 115.533 634.828 152.681 634.828 217.297L634.784 217.34ZM573.422 264.168V261.281C512.545 262.215 485.215 275.291 485.215 301.783C485.215 319.614 497.473 329.293 519.336 329.293C553.451 329.293 573.422 305.137 573.422 264.168Z" fill="black"/>
<path d="M908.976 248.283C908.976 327.844 866.702 380.999 808.07 380.999C773.993 380.999 749.443 363.631 737.147 337.101H731.718V373.737H673.975V13.8477H735.293V152.803H740.76C753.901 130.132 776.647 115.654 807.993 115.654C866.702 115.612 908.938 168.681 908.938 248.283H908.976ZM846.246 248.283C846.246 205.362 823.947 176.917 790.791 176.917C757.641 176.917 735.337 205.362 735.337 248.283C735.337 291.206 757.641 319.65 790.791 319.65C823.947 319.65 846.246 291.206 846.246 248.283Z" fill="black"/>
<path d="M948.15 314.343V13.8477H1009.51V304.706C1009.51 312.433 1013.13 316.296 1020.4 316.296H1048.17V373.737H1003.64C965.909 373.696 948.189 354.889 948.189 314.386L948.15 314.343Z" fill="black"/>
<path d="M1300.43 265.144H1125.86C1130.8 303.736 1153.55 325.94 1188.59 325.94C1213.59 325.94 1232.23 314.349 1239.95 294.056H1297.26C1287.65 346.104 1243.6 380.875 1185.86 380.875C1115.37 380.875 1067.71 327.808 1067.71 248.162C1067.71 168.517 1114.49 115.533 1184.05 115.533C1253.61 115.533 1300.39 168.602 1300.39 248.162V265.144H1300.43ZM1126.35 227.529H1241.32C1235.85 191.358 1215.44 170.639 1184.05 170.639C1152.67 170.639 1131.77 191.358 1126.35 227.529Z" fill="black"/>
<path d="M1368.58 130.846C1334.42 130.846 1306.65 101.467 1306.65 65.4233C1306.65 29.3791 1334.46 0 1368.58 0C1402.7 0 1430.5 29.3791 1430.5 65.4233C1430.5 101.467 1402.74 130.846 1368.58 130.846ZM1368.58 33.0299C1351.7 33.0299 1337.96 47.5073 1337.96 65.3808C1337.96 83.2543 1351.66 97.7311 1368.58 97.7311C1385.5 97.7311 1399.2 83.2543 1399.2 65.3808C1399.2 47.5073 1385.5 33.0299 1368.58 33.0299Z" fill="black"/>
</svg>
