<svg width="76" height="19" viewBox="0 0 76 19" fill="none" xmlns="http://www.w3.org/2000/svg">
<g clip-path="url(#clip0_2001_527)">
<path d="M12.6327 13.2277H3.15668C3.42922 15.1518 4.66315 16.2592 6.56195 16.2592C7.91866 16.2592 8.93096 15.6808 9.35025 14.6722H12.459C11.9409 17.2707 9.54792 19.003 6.4152 19.003C2.59064 19.0001 0 16.3522 0 12.3848C0 8.41738 2.54272 5.76953 6.31636 5.76953C10.09 5.76953 12.6327 8.41448 12.6327 12.3848V13.2277ZM3.18364 11.3501H9.42513C9.12862 9.54802 8.0175 8.5133 6.31636 8.5133C4.61523 8.5133 3.48014 9.54802 3.18364 11.3501Z" fill="#1F1F1F"/>
<path d="M21.7647 6.12988V9.57122H19.839C18.2337 9.57122 17.7904 10.292 17.7904 12.2656V18.6396H14.457V6.12988H17.5898V8.272H17.8623C18.2067 6.97278 19.3418 6.12988 20.7734 6.12988H21.7617H21.7647Z" fill="#1F1F1F"/>
<path d="M33.92 10.8443V18.6367H30.7633V16.8812H30.5178C29.7031 18.2298 28.3224 18.9971 26.4476 18.9971C24.0546 18.9971 22.623 17.7938 22.623 15.6052C22.623 12.7655 25.04 11.3704 30.5926 11.3006V10.7222C30.5926 9.3271 29.778 8.53362 28.3973 8.53362C27.1874 8.53362 26.3248 9.13527 26.226 10.2659H22.8686C23.2879 7.30706 25.5341 5.7666 28.6429 5.7666C32.0482 5.7666 33.923 7.61806 33.923 10.8414L33.92 10.8443ZM30.5896 13.1783V13.0329C27.2832 13.0823 25.8037 13.7305 25.8037 15.053C25.8037 15.9424 26.4716 16.4249 27.6546 16.4249C29.5055 16.4249 30.5896 15.2215 30.5896 13.1783Z" fill="#1F1F1F"/>
<path d="M48.8033 12.3849C48.8033 16.3523 46.5092 19.0002 43.3255 19.0002C41.4746 19.0002 40.1419 18.134 39.477 16.8115H39.1835V18.6398H36.0508V0.694824H39.3812V7.62109H39.6777C40.3935 6.49045 41.6274 5.76963 43.3285 5.76963C46.5122 5.76963 48.8063 8.41457 48.8063 12.3849H48.8033ZM45.398 12.3849C45.398 10.2428 44.1881 8.82439 42.3881 8.82439C40.5881 8.82439 39.3782 10.2428 39.3782 12.3849C39.3782 14.527 40.5881 15.9454 42.3881 15.9454C44.1881 15.9454 45.398 14.527 45.398 12.3849Z" fill="#1F1F1F"/>
<path d="M50.9316 15.678V0.694824H54.265V15.1984C54.265 15.5821 54.4627 15.7768 54.858 15.7768H56.3645V18.6398H53.9446C51.896 18.6398 50.9346 17.7009 50.9346 15.6809L50.9316 15.678Z" fill="#1F1F1F"/>
<path d="M70.0546 13.2277H60.5816C60.8511 15.1518 62.085 16.2592 63.9868 16.2592C65.3435 16.2592 66.3558 15.6808 66.7721 14.6723H69.8809C69.3628 17.2707 66.9698 19.003 63.8341 19.003C60.0095 19.003 57.4219 16.3551 57.4219 12.3877C57.4219 8.42031 59.9616 5.77246 63.7382 5.77246C67.5149 5.77246 70.0546 8.4174 70.0546 12.3877V13.2306V13.2277ZM60.6055 11.3501H66.847C66.5505 9.54805 65.4424 8.51332 63.7382 8.51332C62.0341 8.51332 60.899 9.54805 60.6055 11.3501Z" fill="#1F1F1F"/>
<path d="M72.6368 6.52807C70.7829 6.52807 69.2734 5.06318 69.2734 3.26404C69.2734 1.46489 70.7829 0 72.6368 0C74.4907 0 76.0001 1.46489 76.0001 3.26404C76.0001 5.06318 74.4907 6.52807 72.6368 6.52807ZM72.6368 1.65091C71.7203 1.65091 70.9746 2.37464 70.9746 3.26404C70.9746 4.15343 71.7203 4.87716 72.6368 4.87716C73.5532 4.87716 74.299 4.15343 74.299 3.26404C74.299 2.37464 73.5532 1.65091 72.6368 1.65091Z" fill="#1F1F1F"/>
</g>
<defs>
<clipPath id="clip0_2001_527">
<rect width="76" height="19" fill="white"/>
</clipPath>
</defs>
</svg>
