<svg width="106" height="19" viewBox="0 0 106 19" fill="none" xmlns="http://www.w3.org/2000/svg">
<path d="M13.2999 12.152V13.0236H3.32497C3.61071 15.0157 4.90953 16.1612 6.9097 16.1612C8.3384 16.1612 9.40343 15.5636 9.84503 14.5177H13.118C12.5725 17.2071 10.0528 19 6.75385 19C2.72752 19 0 16.2608 0 12.152C0 8.04325 2.67556 5.30406 6.64994 5.30406C10.6243 5.30406 13.2999 8.04325 13.2999 12.152ZM6.64994 8.14286C4.8316 8.14286 3.66266 9.21363 3.35095 11.0813H9.92296C9.61124 9.21363 8.44231 8.14286 6.64994 8.14286Z" fill="black"/>
<path d="M22.1598 5.67759H23.1989V9.23853H21.1727C19.4843 9.23853 19.0167 9.98558 19.0167 12.0275V18.6265H15.5099V5.67759H18.8089V7.89384H19.0946C19.4583 6.54915 20.6532 5.67759 22.1598 5.67759Z" fill="black"/>
<path d="M30.4851 5.30406C34.0698 5.30406 36.044 7.22149 36.044 10.5583V18.6265H32.719V16.8087H32.4593C31.602 18.2031 30.1474 19 28.1732 19C25.6535 19 24.1468 17.7549 24.1468 15.4889C24.1468 12.5505 26.6925 11.1062 32.5372 11.0315V10.4338C32.5372 8.98952 31.68 8.16776 30.2253 8.16776C28.9525 8.16776 28.0433 8.7903 27.9394 9.96068H24.4066C24.8482 6.89777 27.212 5.30406 30.4851 5.30406ZM29.446 16.3355C31.3942 16.3355 32.5372 15.0904 32.5372 12.9738V12.8244C29.0564 12.8742 27.4978 13.5465 27.4978 14.9161C27.4978 15.8375 28.1991 16.3355 29.446 16.3355Z" fill="black"/>
<path d="M42.7954 18.4402C41.081 18.4402 40.2238 17.6682 40.2238 16.1243V6.73639H38.1976V5.46641H40.2238V1.50704H41.8343V5.46641H44.328V6.73639H41.8343V15.8753C41.8343 16.3236 41.9382 16.639 42.146 16.8216C42.3538 17.0042 42.6829 17.0955 43.1331 17.0955C43.5314 17.0955 43.8865 17.0291 44.1982 16.8963H44.2761V18.2161C43.8432 18.3655 43.3496 18.4402 42.7954 18.4402Z" fill="black"/>
<path d="M51.7173 17.3694C53.1547 17.3694 54.2716 16.8548 55.0682 15.8255C55.8649 14.7962 56.2632 13.4931 56.2632 11.9159C56.2632 10.3388 55.8649 9.03565 55.0682 8.00638C54.2716 6.97711 53.1547 6.46248 51.7173 6.46248C50.2626 6.46248 49.137 6.97711 48.3404 8.00638C47.5438 9.03565 47.1455 10.3388 47.1455 11.9159C47.1455 13.4931 47.5438 14.7962 48.3404 15.8255C49.137 16.8548 50.2626 17.3694 51.7173 17.3694ZM51.7173 18.6643C49.8124 18.6643 48.2971 18.0335 47.1714 16.7718C46.0458 15.4935 45.483 13.8749 45.483 11.9159C45.483 9.95702 46.0458 8.3467 47.1714 7.08502C48.2971 5.80673 49.8124 5.16759 51.7173 5.16759C53.6049 5.16759 55.1029 5.80673 56.2112 7.08502C57.3368 8.3467 57.8997 9.95702 57.8997 11.9159C57.8997 13.8749 57.3368 15.4935 56.2112 16.7718C55.1029 18.0335 53.6049 18.6643 51.7173 18.6643Z" fill="black"/>
<path d="M59.9335 18.3406V0.53587H61.5441V11.6669L68.22 5.46641H70.2721L65.1288 10.123L70.8955 18.3406H69.0253L64.0118 11.1191L61.5441 13.3851V18.3406H59.9335Z" fill="black"/>
<path d="M76.9332 18.6643C74.9763 18.6643 73.4437 18.0418 72.3354 16.7967C71.2271 15.535 70.6729 13.9081 70.6729 11.9159C70.6729 9.95702 71.2357 8.3467 72.3614 7.08502C73.487 5.80673 74.9677 5.16759 76.8033 5.16759C77.8424 5.16759 78.7429 5.3585 79.5049 5.74033C80.2842 6.12215 80.8903 6.65339 81.3232 7.33403C81.7562 8.01468 82.0679 8.76173 82.2584 9.57519C82.4662 10.372 82.5701 11.2436 82.5701 12.1899H72.3354C72.37 13.7172 72.777 14.9623 73.5563 15.9251C74.3356 16.8714 75.4612 17.3445 76.9332 17.3445C78.9767 17.3445 80.2842 16.3817 80.8556 14.4559H82.4142C82.1198 15.7508 81.4964 16.7801 80.5439 17.5437C79.6088 18.2908 78.4052 18.6643 76.9332 18.6643ZM72.3614 10.9697H80.8816C80.847 9.62499 80.4833 8.53762 79.7906 7.70756C79.1152 6.8609 78.1195 6.43757 76.8033 6.43757C75.5045 6.43757 74.4741 6.8526 73.7122 7.68266C72.9675 8.51272 72.5172 9.60839 72.3614 10.9697Z" fill="black"/>
<path d="M84.5654 18.3406V5.46641H86.1759V7.43364H86.2279C87.2842 5.93954 88.7822 5.19249 90.7218 5.19249C92.0033 5.19249 93.0337 5.54941 93.813 6.26326C94.6096 6.96051 95.0079 7.93998 95.0079 9.20166V18.3406H93.3973V9.35107C93.3973 7.45854 92.3756 6.51228 90.3321 6.51228C89.1719 6.51228 88.1848 6.8609 87.3708 7.55815C86.5742 8.2554 86.1759 9.12696 86.1759 10.1728V18.3406H84.5654Z" fill="black"/>
<path d="M101.948 7.84404C99.5319 7.84404 97.8434 6.25033 97.8434 3.95937C97.8434 1.61861 99.5319 0 101.948 0C104.338 0 106 1.61861 106 3.95937C106 6.25033 104.338 7.84404 101.948 7.84404ZM101.948 5.67759C102.987 5.67759 103.74 4.95544 103.74 3.95937C103.74 2.9135 102.987 2.16645 101.948 2.16645C100.883 2.16645 100.129 2.9135 100.129 3.95937C100.129 4.95544 100.883 5.67759 101.948 5.67759Z" fill="#1F1F1F"/>
</svg>
