<svg width="109" height="22" viewBox="0 0 109 22" fill="none" xmlns="http://www.w3.org/2000/svg">
<path d="M13.6763 13.8448V14.7797H3.41907C3.7129 16.9166 5.04848 18.1453 7.10526 18.1453C8.5744 18.1453 9.66957 17.5042 10.1237 16.3824H13.4893C12.9284 19.2672 10.3374 21.1904 6.94499 21.1904C2.80471 21.1904 0 18.2522 0 13.8448C0 9.43737 2.75129 6.49911 6.83815 6.49911C10.925 6.49911 13.6763 9.43737 13.6763 13.8448ZM6.83815 9.54422C4.96834 9.54422 3.76632 10.6928 3.44579 12.6962H10.2038C9.88326 10.6928 8.68124 9.54422 6.83815 9.54422Z" fill="black"/>
<path d="M22.787 6.89978H23.8555V10.7195H21.772C20.0357 10.7195 19.5549 11.5209 19.5549 13.7112V20.7898H15.9489V6.89978H19.3412V9.2771H19.635C20.009 7.83468 21.2377 6.89978 22.787 6.89978Z" fill="black"/>
<path d="M31.3478 6.49911C35.034 6.49911 37.0641 8.55589 37.0641 12.1352V20.7898H33.645V18.8398H33.3779C32.4964 20.3357 31.0006 21.1904 28.9705 21.1904C26.3795 21.1904 24.8302 19.8549 24.8302 17.4241C24.8302 14.2722 27.448 12.7229 33.458 12.6428V12.0017C33.458 10.4524 32.5766 9.57093 31.0807 9.57093C29.7719 9.57093 28.837 10.2387 28.7301 11.4942H25.0973C25.5514 8.20864 27.9822 6.49911 31.3478 6.49911ZM30.2794 18.3323C32.2827 18.3323 33.458 16.9967 33.458 14.7263V14.566C29.8787 14.6194 28.276 15.3406 28.276 16.8097C28.276 17.7981 28.9972 18.3323 30.2794 18.3323Z" fill="black"/>
<path d="M44.0066 20.5899C42.2437 20.5899 41.3622 19.7619 41.3622 18.1058V8.03554H39.2787V6.67325H41.3622V2.42612H43.0183V6.67325H45.5826V8.03554H43.0183V17.8387C43.0183 18.3195 43.1252 18.6578 43.3388 18.8537C43.5525 19.0496 43.8909 19.1475 44.3539 19.1475C44.7635 19.1475 45.1285 19.0763 45.4491 18.9338H45.5292V20.3495C45.084 20.5098 44.5765 20.5899 44.0066 20.5899Z" fill="black"/>
<path d="M53.181 19.4414C54.659 19.4414 55.8076 18.8893 56.6268 17.7852C57.4459 16.6812 57.8555 15.2833 57.8555 13.5915C57.8555 11.8998 57.4459 10.5019 56.6268 9.39782C55.8076 8.29375 54.659 7.74171 53.181 7.74171C51.6852 7.74171 50.5277 8.29375 49.7085 9.39782C48.8893 10.5019 48.4798 11.8998 48.4798 13.5915C48.4798 15.2833 48.8893 16.6812 49.7085 17.7852C50.5277 18.8893 51.6852 19.4414 53.181 19.4414ZM53.181 20.8304C51.2221 20.8304 49.664 20.1537 48.5065 18.8003C47.349 17.4291 46.7702 15.6928 46.7702 13.5915C46.7702 11.4902 47.349 9.76288 48.5065 8.4095C49.664 7.03831 51.2221 6.35271 53.181 6.35271C55.122 6.35271 56.6624 7.03831 57.8021 8.4095C58.9596 9.76288 59.5383 11.4902 59.5383 13.5915C59.5383 15.6928 58.9596 17.4291 57.8021 18.8003C56.6624 20.1537 55.122 20.8304 53.181 20.8304Z" fill="black"/>
<path d="M61.6298 20.4831V1.38437H63.2859V13.3244L70.1507 6.67325H72.2609L66.9721 11.6683L72.902 20.4831H70.9788L65.8235 12.7368L63.2859 15.1675V20.4831H61.6298Z" fill="black"/>
<path d="M79.1106 20.8304C77.0983 20.8304 75.5223 20.1626 74.3826 18.827C73.2429 17.4736 72.6731 15.7285 72.6731 13.5915C72.6731 11.4902 73.2518 9.76288 74.4093 8.4095C75.5668 7.03831 77.0894 6.35271 78.977 6.35271C80.0455 6.35271 80.9715 6.5575 81.755 6.96708C82.5564 7.37665 83.1796 7.9465 83.6248 8.67661C84.07 9.40673 84.3905 10.2081 84.5864 11.0806C84.8001 11.9354 84.907 12.8703 84.907 13.8854H74.3826C74.4182 15.5237 74.8367 16.8592 75.6381 17.8921C76.4394 18.9071 77.5969 19.4146 79.1106 19.4146C81.2119 19.4146 82.5564 18.3818 83.144 16.3161H84.7467C84.444 17.7051 83.8029 18.8092 82.8235 19.6283C81.8619 20.4297 80.6242 20.8304 79.1106 20.8304ZM74.4093 12.5765H83.1707C83.1351 11.1341 82.7611 9.96767 82.0488 9.07729C81.3543 8.16909 80.3304 7.715 78.977 7.715C77.6414 7.715 76.5819 8.16019 75.7983 9.05057C75.0326 9.94096 74.5696 11.1163 74.4093 12.5765Z" fill="black"/>
<path d="M86.9587 20.4831V6.67325H88.6149V8.78346H88.6683C89.7545 7.18077 91.2949 6.37942 93.2894 6.37942C94.6071 6.37942 95.6667 6.76229 96.468 7.52802C97.2872 8.27594 97.6968 9.32659 97.6968 10.68V20.4831H96.0407V10.8402C96.0407 8.81017 94.99 7.79513 92.8887 7.79513C91.6956 7.79513 90.6805 8.16909 89.8436 8.91702C89.0244 9.66494 88.6149 10.5998 88.6149 11.7217V20.4831H86.9587Z" fill="black"/>
<path d="M104.833 9.22368C102.349 9.22368 100.613 7.51414 100.613 5.05668C100.613 2.5458 102.349 0.809555 104.833 0.809555C107.29 0.809555 109 2.5458 109 5.05668C109 7.51414 107.29 9.22368 104.833 9.22368ZM104.833 6.89978C105.901 6.89978 106.676 6.12515 106.676 5.05668C106.676 3.9348 105.901 3.13346 104.833 3.13346C103.738 3.13346 102.963 3.9348 102.963 5.05668C102.963 6.12515 103.738 6.89978 104.833 6.89978Z" fill="black"/>
</svg>
