<svg xmlns="http://www.w3.org/2000/svg" width="81" height="22" fill="none" viewBox="0 0 81 22">
  <path fill="#000" d="M13.182 15.075H3.294c.284 2.106 1.568 3.318 3.553 3.318 1.416 0 2.472-.633 2.911-1.74h3.244c-.54 2.84-3.039 4.739-6.305 4.739C2.704 21.392 0 18.495 0 14.148c0-4.348 2.652-7.24 6.59-7.24 3.938 0 6.59 2.897 6.59 7.24v.927h.002Zm-9.863-2.056h6.514c-.31-1.975-1.468-3.105-3.243-3.105-1.776 0-2.962 1.13-3.271 3.105Zm19.698-5.713v3.766H21.01c-1.673 0-2.137.79-2.137 2.948v6.975h-3.476V7.301h3.271v2.343h.285c.36-1.42 1.543-2.343 3.039-2.343h1.028l-.002.005Zm12.911 5.159v8.533h-3.296v-1.924h-.255c-.849 1.477-2.292 2.318-4.248 2.318-2.497 0-3.992-1.319-3.992-3.713 0-3.11 2.522-4.632 8.315-4.713v-.633c0-1.527-.849-2.396-2.292-2.396-1.261 0-2.162.658-2.265 1.895h-3.5c.439-3.237 2.78-4.924 6.024-4.924 3.554 0 5.511 2.028 5.511 5.555l-.002.002Zm-3.476 2.556v-.157c-3.448.05-4.996.764-4.996 2.21 0 .974.694 1.502 1.933 1.502 1.932 0 3.063-1.318 3.063-3.555Zm19.008-.867c0 4.343-2.395 7.245-5.717 7.245-1.93 0-3.32-.948-4.017-2.397h-.307v2h-3.271V1.357h3.473v7.585h.31c.744-1.237 2.033-2.027 3.808-2.027 3.326-.003 5.718 2.894 5.718 7.24h.002Zm-3.554 0c0-2.343-1.263-3.895-3.141-3.895-1.878 0-3.141 1.552-3.141 3.895s1.263 3.896 3.14 3.896c1.879 0 3.142-1.553 3.142-3.896Zm5.772 3.606V1.357h3.476v15.877c0 .422.205.633.617.633h1.572v3.135h-2.522c-2.137-.002-3.14-1.029-3.14-3.24l-.003-.002Zm19.954-2.685h-9.888c.28 2.106 1.568 3.318 3.553 3.318 1.416 0 2.472-.633 2.91-1.74h3.245c-.544 2.84-3.039 4.739-6.31 4.739-3.992 0-6.692-2.897-6.692-7.244 0-4.348 2.65-7.24 6.59-7.24s6.59 2.897 6.59 7.24v.927h.002Zm-9.86-2.054h6.512c-.31-1.974-1.466-3.105-3.244-3.105-1.778 0-2.961 1.13-3.269 3.105Zm13.721-5.277c-1.935 0-3.508-1.604-3.508-3.571C73.985 2.205 75.56.6 77.493.6 79.425.601 81 2.205 81 4.173c0 1.967-1.573 3.57-3.507 3.57Zm0-5.34c-.956 0-1.735.79-1.735 1.766s.776 1.766 1.735 1.766c.958 0 1.734-.79 1.734-1.766 0-.975-.776-1.766-1.734-1.766Z"/>
</svg>
