<svg width="25" height="24" viewBox="0 0 25 24" fill="none" xmlns="http://www.w3.org/2000/svg">
<path d="M17.9167 8.75002V6.58335C17.9167 5.38674 16.9466 4.41669 15.75 4.41669H4.91667C3.72005 4.41669 2.75 5.38674 2.75 6.58335V13.0834C2.75 14.28 3.72005 15.25 4.91667 15.25H7.08333M9.25 19.5834H20.0833C21.28 19.5834 22.25 18.6133 22.25 17.4167V10.9167C22.25 9.72007 21.28 8.75002 20.0833 8.75002H9.25C8.05338 8.75002 7.08333 9.72007 7.08333 10.9167V17.4167C7.08333 18.6133 8.05338 19.5834 9.25 19.5834ZM16.8333 14.1667C16.8333 15.3633 15.8633 16.3334 14.6667 16.3334C13.4701 16.3334 12.5 15.3633 12.5 14.1667C12.5 12.9701 13.4701 12 14.6667 12C15.8633 12 16.8333 12.9701 16.8333 14.1667Z" stroke="#1F1F1F" stroke-width="2.67" stroke-linecap="round" stroke-linejoin="round"/>
</svg>
