<svg width="159" height="40" viewBox="0 0 159 40" fill="none" xmlns="http://www.w3.org/2000/svg">
<path d="M25.8116 27.8366H6.44957C7.0067 31.8882 9.52059 34.2193 13.4073 34.2193C16.1796 34.2193 18.2478 33.0024 19.108 30.8719H25.4595C24.4032 36.3363 19.5091 39.9868 13.1131 39.9868C5.29511 39.9868 0 34.4154 0 26.0537C0 17.692 5.19263 12.1294 12.9036 12.1294C20.6145 12.1294 25.8072 17.7009 25.8072 26.0537V27.8366H25.8116ZM6.49858 23.883H19.2551C18.649 20.0855 16.3802 17.9104 12.9036 17.9104C9.42697 17.9104 7.10478 20.0855 6.49858 23.883Z" fill="#1F1F1F"/>
<path d="M45.0693 12.8949V20.1379H41.1379C37.8618 20.1379 36.9525 21.6578 36.9525 25.8075V39.2239H30.1465V12.886H36.5518V17.3923H37.1086C37.8129 14.66 40.1307 12.886 43.0592 12.886H45.0735L45.0693 12.8949Z" fill="#1F1F1F"/>
<path d="M70.3515 22.8178V39.2293H63.8979V35.5298H63.3986C61.7361 38.369 58.9104 39.9868 55.0812 39.9868C50.1916 39.9868 47.2637 37.4505 47.2637 32.8465C47.2637 26.8649 52.2022 23.9365 63.5455 23.7805V22.5637C63.5455 19.6264 61.883 17.955 59.0572 17.955C56.5877 17.955 54.823 19.2208 54.6223 21.601H47.7673C48.6276 15.3742 53.2137 12.1294 59.5651 12.1294C66.5229 12.1294 70.3564 16.0295 70.3564 22.8133L70.3515 22.8178ZM63.5455 27.7341V27.431C56.7933 27.529 53.762 28.9019 53.762 31.6831C53.762 33.5552 55.1216 34.5714 57.5465 34.5714C61.3304 34.5714 63.5455 32.0353 63.5455 27.7341Z" fill="#1F1F1F"/>
<path d="M100.765 26.0665C100.765 34.4193 96.0756 40 89.5724 40C85.7928 40 83.0699 38.1765 81.706 35.3912H81.1039V39.2375H74.6992V1.45386H81.5004V16.0423H82.1068C83.5643 13.6622 86.0871 12.1422 89.5639 12.1422C96.0756 12.1378 100.76 17.7093 100.76 26.0665H100.765ZM93.8067 26.0665C93.8067 21.5603 91.3335 18.574 87.656 18.574C83.9791 18.574 81.5053 21.5603 81.5053 26.0665C81.5053 30.5728 83.9791 33.5591 87.656 33.5591C91.3335 33.5591 93.8067 30.5728 93.8067 26.0665Z" fill="#1F1F1F"/>
<path d="M105.107 33.002V1.45386H111.913V31.9902C111.913 32.8014 112.315 33.207 113.121 33.207H116.201V39.2375H111.262C107.077 39.2333 105.112 37.2587 105.112 33.0064L105.107 33.002Z" fill="#1F1F1F"/>
<path d="M144.182 27.8366H124.82C125.369 31.8882 127.892 34.2193 131.778 34.2193C134.551 34.2193 136.619 33.0024 137.474 30.8719H143.831C142.765 36.3363 137.88 39.9868 131.475 39.9868C123.657 39.9868 118.371 34.4154 118.371 26.0537C118.371 17.692 123.559 12.1294 131.275 12.1294C138.99 12.1294 144.178 17.7009 144.178 26.0537V27.8366H144.182ZM124.874 23.8875H137.626C137.02 20.09 134.756 17.9148 131.275 17.9148C127.794 17.9148 125.476 20.09 124.874 23.8875Z" fill="#1F1F1F"/>
<path d="M151.74 13.7371C147.951 13.7371 144.871 10.6527 144.871 6.86859C144.871 3.08442 147.956 0 151.74 0C155.524 0 158.608 3.08442 158.608 6.86859C158.608 10.6527 155.528 13.7371 151.74 13.7371ZM151.74 3.46771C149.868 3.46771 148.344 4.98764 148.344 6.86412C148.344 8.74061 149.864 10.2605 151.74 10.2605C153.616 10.2605 155.136 8.74061 155.136 6.86412C155.136 4.98764 153.616 3.46771 151.74 3.46771Z" fill="#1F1F1F"/>
</svg>
